<?xml version="1.0" encoding="UTF-8" standalone="no"?><svg height="660" width="600" xmlns="http://www.w3.org/2000/svg" xmlns:xlink="http://www.w3.org/1999/xlink"><radialGradient id="a" cx="221.44487" cy="226.33101" gradientTransform="matrix(1.353218 0 0 1.348928 -77.62935 -85.74693)" gradientUnits="userSpaceOnUse" r="300"><stop offset="0" stop-color="#fff" stop-opacity=".313726"/><stop offset=".19" stop-color="#fff" stop-opacity=".25098"/><stop offset=".60000002" stop-color="#6b6b6b" stop-opacity=".12549"/><stop offset="1" stop-opacity=".12549"/></radialGradient><path d="m299.99999 658.5s298.50001-112.32031 298.50001-397.77183v-259.22817h-597v259.22817c0 285.45152 298.49999 397.77183 298.49999 397.77183z" fill="#fcef3c" fill-rule="evenodd"/><g stroke="#000"><path d="m1.5 1.5h597v197h-597z" fill="#2b5df2" stroke-width="3"/><g stroke-linecap="round" stroke-linejoin="round"><g stroke-width="3.016231" transform="matrix(.9946185 0 0 .99461938 3.507717 5.605423)"><path d="m351.66457 57.095288c-22.09895-2.614737-45.07115-6.436311-62.39339-4.358105-16.366 1.963482-33.69415.544758-50.50033-.122216-24.46033 1.705605-28.65527 44.188074-34.81142 68.250613-22.99055 96.07627-25.40082 194.61345-31.43135 293.27776-.32712 7.51481-.65423 15.02963-.98135 22.54444-.28623 6.57547-.57245 13.15094-.85868 19.72639-.40367 9.2735 13.92475 6.19848 22.77183 6.54958 25.09774 12.59988 55.24679 8.46897 81.83617 11.71655 9.23979.36669 17.4041 3.74643 17.78222-4.94015.58851-13.51984.10081-27.5391.70308-41.37499 1.00861-23.17069 2.01721-46.34137 3.02582-69.51206-1.12368-58.35828 3.38671-116.54044 6.50938-174.763.57121-13.12245 3.09273-27.51363.66219-40.43564-1.62343-8.63101.84474-19.4061 1.22668-28.18057.2726-6.26235.5452-12.52469.81779-18.787038.26639-6.119637 2.10338-8.531166 4.95668-12.976937 4.49662-9.546812 23.15692-20.966091 40.68468-26.614627z" style="fill:#fff;fill-rule:evenodd;stroke:#000;stroke-width:3.016231;stroke-linecap:round;stroke-linejoin:round"/><path d="m239.35203 52.642648c-4.91213 4.772247-6.85906 12.303991-6.341 17.182193-1.89057-1.807585-.46778-4.810915-1.86442-7.655533-.85684 4.026806-4.14704 7.53477-4.71856 11.18018-.70628-.776258 1.22153-5.040943.35374-11.295612-4.99099 5.509433-8.01462 11.751479-12.24823 15.062867 3.99334-9.535423 8.80546-18.680209 19.86826-24.842787zm-31.46036 51.183442c1.21792.0783-4.1727-3.69265 4.05596-3.36938-8.87037 1.73328 10.90689 11.63959-.76867 12.09649-1.72548-.0443-6.38217-.20795-5.75443-1.9359zm14.84662 16.95966c.66431-.51232 4.73875 2.64066 9.57331-.70498-8.71018 2.43658-11.33443-7.56896-19.73284-3.33643-2.88759 1.88709 2.58431 7.71921 10.15953 4.04141zm-16.48455-3.97714c-4.64671 16.19764 1.638 33.45812 7.49637 44.3817-3.12905-1.54178-6.26975-4.90401-9.36373-7.90697 1.0941 5.28616 2.33128 9.95379 3.55845 14.6647-1.22129-.70069-4.43036-5.8052-8.67897-13.21281-2.93054 8.62741-3.61515 18.30761-6.80704 23.94374zm-32.2072 301.45373c2.4515-2.96787-1.51602-12.9485.18745-6.18415l-2.75915 16.55598c4.17102-.23102 8.90706-4.70646 2.5717-10.37183zm13.27578 16.77351c.41423-1.09383 5.52297 2.63541 8.69372-4.69025-7.17756 7.24391-13.72126-8.38095-19.87368 1.72613-1.9392 4.1911 5.57352 11.84861 11.17996 2.96412zm-15.64967-1.56754-1.13983 28.11404 10.27163 1.43058c-4.17492-8.10832-7.41672-17.74271-9.1318-29.54462zm19.79987-228.98111c2.62374-2.85697-1.77009-12.99164-.46515-6.16542l-2.71341 16.40842c4.18118-.0506 9.17613-4.31396 3.17856-10.243zm12.28015 17.31758c.47811-1.07407 5.36373 2.86923 8.96201-4.30698-7.59702 6.92168-13.21802-8.95869-19.95883.86548-2.18369 4.10019 4.87332 12.06874 10.99682 3.4415zm-15.54488-2.24023c-6.10158 21.11818-4.75998 42.20435-6.70425 63.30557 2.0522-5.93383 4.50737-15.86084 6.56105-24.96241 3.10996 4.38735 6.11435 8.81442 10.5192 12.71471l-5.29354-14.68034c3.22071 2.54321 6.73164 5.85042 10.25753 7.40566-7.66988-10.81882-13.68286-24.53647-15.33999-43.78319zm-6.53485 86.55394c2.45149-2.96786-2.64438-12.94849-.94091-6.18414l-1.63079 16.55598c4.17101-.23102 8.90706-4.70646 2.5717-10.37184zm13.27578 16.77352c.41423-1.09383 5.52296 2.63541 8.69372-4.69025-7.17756 7.24391-13.72126-8.38095-19.87369 1.72613-1.93919 4.1911 5.57353 11.84861 11.17997 2.96412zm-15.64967-1.56754c-4.51448 21.81243-2.63385 42.38975-3.64746 63.52604 1.70028-6.01756 4.23993-16.02514 5.75571-25.20792 3.3622 4.24956 6.62134 8.54337 11.24761 12.25038l-6.14634-14.43993c3.36448 2.40214 7.06355 5.55513 10.67468 6.95694-8.29188-10.479-15.09991-23.92598-17.8842-43.08551zm123.95753-201.15434c-2.33484-2.79287 2.01315-11.62221.0509-5.59273-.43441 4.98029 3.12447 10.11905-1.40551 14.9368-4.15808-.40082-5.19273-4.52038 1.35465-9.34407zm-17.43329 14.39426c-.37171-1.00678-5.6191 2.12516-8.5047-4.63579 6.89167 6.87179 14.0307-6.93539 19.78798 2.4745 1.77593 3.8738-6.02438 10.44206-11.28328 2.16129zm13.42585-12.03937c5.07552 19.35996 2.06291 38.39893.12687 57.48063-1.46692-5.51201-2.54785-14.61617-3.70857-22.97779-3.52258 3.68228-6.94391 7.40925-11.70844 10.54336l6.69642-12.75553c-3.45372 2.014-7.27062 4.69058-10.93224 5.78995 10.51944-8.20598 19.76444-19.11564 19.52596-38.08062zm.85791 85.4832c-2.09416-3.19647 3.00403-12.72119.52852-6.167l.82927 16.73647c-4.12006-.64798-8.31123-5.57238-1.35779-10.56947zm-15.13759 15.34464c-.28537-1.12902-5.7955 2.0662-8.10099-5.53486 6.29845 7.92163 14.61032-6.95617 19.55861 3.70917 1.44344 4.36122-6.9108 11.22079-11.45762 1.82569zm15.7399.011-4.78295 63.41511c-.99477-6.1531-1.2971-16.2497-1.74255-25.53114-3.8339 3.88769-7.57045 7.82969-12.59834 11.05119l7.77984-13.7396c-3.62261 2.05077-7.66465 4.81446-11.41684 5.84598 9.45503-9.58653 17.77793-22.2726 22.76084-41.04154zm-9.62849 206.60043c-2.1851-3.15188 3.79304-12.78371 1.50756-6.17767l.15387 16.71751c-4.13655-.56072-8.46731-5.39599-1.66143-10.53984zm-14.68775 15.66375c-.31774-1.12287-5.73296 2.18871-8.25612-5.36292 6.52325 7.78765 14.40232-7.26483 19.65513 3.29488 1.56827 4.3303-6.58405 11.36611-11.39901 2.06804zm15.73192-.32212-.0107 28.10739-11.65724.61176c4.86519-7.74955 8.93314-17.09384 11.66798-28.71915zm3.60082-134.66113c-2.1851-3.15188 2.63613-12.78371.35065-6.17768l1.31078 16.71751c-4.13655-.56071-8.46731-5.39598-1.66143-10.53983zm-14.68776 15.66375c-.31773-1.12287-5.73295 2.18871-8.2561-5.36292 6.52324 7.78764 14.40231-7.26484 19.65511 3.29488 1.56827 4.3303-6.58404 11.36611-11.39901 2.06804zm15.73194-.32212-2.55539 63.51101c-1.17145-6.13153-2.16329-16.22088-2.87578-25.49211-3.71992 3.96851-7.34099 7.98926-12.27348 11.31692l7.38011-13.90311c-3.56165 2.12726-7.52198 4.97628-11.24249 6.08713 9.17399-9.78584 17.1272-22.64701 21.56703-41.51984zm-29.8814-261.9295c1.22033.03024 2.08921-2.271465 10.3231-2.273035-8.76428 2.082106 2.72376 7.76999-8.91008 8.687207-4.72999.06532-11.6701-5.505876-1.41302-6.414172zm-17.95577 7.793039c-.0903-.684931-6.0741.239914-7.06159-4.432964 4.87653 5.494946 15.60907-1.594002 18.68676 5.237575.68571 2.7005-8.7285 5.243472-11.62517-.804611zm31.35295 6.392345c.63583-.5382 4.8735 2.451999 9.52137-1.082205-8.56657 2.778627-11.72397-7.116919-19.88284-2.555791-2.78206 1.999787 2.99479 7.612271 10.36147 3.637996zm-16.67374-3.324237c-3.77051 16.370498 3.43134 33.371893 9.86737 44.057303-3.20719-1.41734-6.52372-4.6535-9.77432-7.53246 1.3762 5.23959 2.86208 9.85539 4.34029 14.51485-1.25711-.65206-4.73541-5.62668-9.37535-12.86189-2.46318 8.73746-5.44157 18.54961-8.32627 24.30802-.40074-6.19788.26816-16.27401.71596-25.54846-4.19736 3.60071-8.30284 7.2624-13.627 10.11535l9.0797-13.13305c-3.81007 1.78634-8.10699 4.25302-11.94835 5.01517 10.35128-8.87882 18.34416-23.510468 29.04798-38.934832zm-20.79285 80.642943c1.10624-.51462-3.37349-4.87852 3.99217-8.69713-6.84448 7.56864 10.31086 11.90904.34165 18.84555-4.20039 2.30213-13.07557-3.86498-4.33382-10.14842zm-15.13591 15.34582c-.2855-1.12899-5.79528 2.06667-8.10161-5.53419 6.29933 7.9211 14.60956-6.95734 19.55903 3.70759 1.44393 4.36109-6.90957 11.22131-11.45742 1.8266zm32.12298 2.18584c.45809-1.08059 5.41542 2.79628 8.87987-4.42901-7.46684 7.02518-13.38034-8.77896-19.93747 1.13709-2.10719 4.12999 5.09546 12.00263 11.0576 3.29192zm-16.38307-2.17607c2.56191 19.25814 9.05293 33.19796 16.49044 43.39965-3.33026-1.18671-6.94443-4.17966-10.45856-6.82104 1.87466 5.12828 3.79852 9.62667 5.71894 14.16915-1.31463-.56141-5.25718-5.27674-10.57406-12.16447-1.61221 8.88837-3.6341 18.88499-5.95273 24.83208-.99546-6.15301-1.29889-16.24957-1.74537-25.53095-3.83347 3.88799-7.56958 7.83027-12.59713 11.05218l7.77833-13.7402c-3.62238 2.05105-7.66412 4.81507-11.4162 5.84688 9.45398-9.58726 17.77549-22.27397 22.75634-41.04328zm-8.56362 86.42979c1.10271-.5201-3.40601-4.86204 3.9335-8.71714-6.79318 7.60269 10.3901 11.85857.46817 18.84453-4.18464 2.32294-13.10062-3.80058-4.40167-10.12739zm-15.03181 15.42106c-.29306-1.12761-5.781 2.09535-8.1382-5.49439 6.35207 7.89029 14.56182-7.02969 19.58256 3.61118 1.47311 4.35412-6.83373 11.25581-11.44436 1.88321zm32.13542 2.02737c.45081-1.0829 5.4338 2.76967 8.84951-4.47299-7.41914 7.06227-13.43835-8.71323-19.92844 1.23554-2.07932 4.14053 5.1757 11.97789 11.07893 3.23745zm-16.39653-2.09529c2.69104 19.24618 9.27521 33.15445 16.7807 43.31979-3.33799-1.17032-6.97201-4.14554-10.50363-6.76966 1.90897 5.1192 3.8629 9.60826 5.81369 14.14141-1.31831-.55493-5.29225-5.25097-10.65501-12.1127-1.55242 8.89664-3.50704 18.9036-5.78558 24.86233-1.0367-6.14831-1.4079-16.24373-1.91668-25.52322-3.80709 3.90704-7.51648 7.8679-12.52204 11.11474l7.68553-13.77907c-3.60836 2.069-7.63126 4.85306-11.37615 5.90343 9.38895-9.63426 17.62469-22.3625 22.47917-41.15705zm-7.34589 92.13417c1.09794-.52737-3.44914-4.83986 3.85518-8.74334-6.72455 7.64763 10.49507 11.79079.63656 18.84221-4.16347 2.35052-13.13329-3.71466-4.49174-10.09887zm-14.8925 15.52044c-.30311-1.12575-5.76171 2.1334-8.18652-5.44115 6.42198 7.84886 14.49757-7.12565 19.61291 3.48266 1.51188 4.34462-6.73246 11.30117-11.42639 1.95849zm32.15036 1.81632c.44108-1.0859 5.45804 2.73403 8.80866-4.53131-7.3553 7.1113-13.51491-8.6253-19.91544 1.36651-2.04209 4.15435 5.28225 11.94437 11.10678 3.1648zm-16.41365-1.98765c2.86279 19.22926 9.57063 33.09484 17.16623 43.21127-3.34814-1.14844-7.00837-4.0999-10.5631-6.70093 1.95452 5.10687 3.94839 9.58327 5.9395 14.10379-1.32314-.5463-5.33865-5.21641-10.76221-12.04318-1.47275 8.90718-3.33774 18.92739-5.5628 24.90133-1.09155-6.14175-1.55294-16.23513-2.1446-25.51166-3.7718 3.93221-7.44542 7.91761-12.42146 11.19746l7.56161-13.83012c-3.58951 2.09279-7.58713 4.9034-11.32226 5.97841 9.30192-9.69633 17.42307-22.47917 22.10909-41.30637z" fill-rule="evenodd" stroke="none"/><path d="m292.97329 470.89182c.0391 4.36032-1.10728 13.19104-7.48067 13.76327-5.2007.46694-16.63564-.49382-37.09228-2.65033-20.45666-2.1565-28.62637-1.66016-44.03045-4.58156-15.4041-2.9214-8.26163-3.67051-17.58592-6.36335-9.32429-2.69285-16.51113-3.48798-16.51113-3.48798-3.16537-2.32173.10457-7.06701.43597-10.3303 0 0 9.1245-.5828 19.0145 2.3242 9.89001 2.90698 2.06498 3.35249 17.17229 6.22564 15.10732 2.87314 23.07448 4.52629 36.5076 4.52629 13.43313 0 46.64648-4.4134 49.57009.57412z" fill="#fff" stroke="#000" stroke-linecap="round" stroke-linejoin="round" stroke-width="3.016231"/></g><g stroke-width="2.692947" transform="matrix(1.1140203 0 0 1.1140221 -34.933418 -6.125452)"><path d="m302.12372 125.88038c0 6.89575 1.3386 17.54926 2.91831 24.21934 1.92072 7.43726 7.05536 9.79339 15.82055 6.47783 10.15394-1.27805 17.58618-30.47438 22.01121-32.5037-11.95452 4.92992-34.19372.1818-40.75007 1.80653z" fill="#fff" fill-rule="evenodd" stroke-width="2.692947"/><g stroke-width="2.53708" transform="matrix(1.077632 0 0 1.045483 9.26643 -48.09717)"><path d="m156.47895 104.27282c9.29599-1.47363 20.69558-1.42814 34.68009-3.74753 7.10288-1.17803 13.34171 1.146 21.17537.33122 3.0869-.32106 6.30297-.68508 11.47335 2.74449 5.56542 1.85515 14.90584 9.3754 22.32641 10.30298 9.13223 1.93071 11.35624 1.16827 21.94561-.67928 70.65116-19.051281 123.79533-24.805901 179.97092-24.435603 5.86209 10.263645 14.48272 62.103093 3.59636 73.902773-59.14142 10.20215-100.63851 5.942-160.3688 7.01086-8.68602.15544-18.41222 1.93455-26.03355.86525-7.99381-1.85063-12.33579-2.01645-23.08148-.56342-7.31957 6.31779-7.30929 7.95036-26.00268 12.51834-5.61886 1.37305-13.412 1.43793-20.1231 1.30994-3.51897 2.41025-10.11395 1.73963-17.14052.41679-1.59289-.29989-3.20796.45286-4.8144-.0301-9.35736 1.06826-32.3753 1.26673-36.40163 1.55206-14.20996 1.00701-24.11238-.95269-24.11238-5.4466.10179-7.07797 15.24585-6.24966 22.53162-6.64653 5.71133-1.0998 32.73375-1.41038 32.06567-4.27829-.48313-2.6589-13.60531-.20606-21.37264.01-10.28529-.68319-12.84455.96279-21.93894.26431-5.4312-.54506-23.31377-.6188-31.302459-2.45621-4.901401-1.12732-8.441793-2.40687-8.360439-6.37502-.0031-2.88366 1.72101-4.50932 4.477128-5.39628 5.303053-1.70661 17.11698-1.57534 25.10515-1.51158 5.21517-.90397 16.35847-1.77416 22.76256-1.49711 7.61222-.33721 25.42363.71111 25.21229-2.17745.47234-1.12042-21.28486 1.11469-28.65089-1.63681-13.46979 1.88537-16.85565.0627-25.97211.21249-2.37553-.39591-15.676465.45886-22.24993-1.59932-4.316235-1.35143-5.871631-3.28983-5.795488-7.75931.569878-4.86645 20.604668-6.35494 28.462598-6.69586 7.89496 0 16.62845-.40398 25.40084-.13584 0 0 29.46698 1.65882 28.16274-1.23234.38072-.10516 1.77232-1.87988-.41929-2.24341-6.66824-1.10606-22.11793-2.86255-26.59998-4.97761-6.9089.98604-13.82479 1.08401-20.23546 2.36714-8.65433-1.05329-17.092297 2.12946-20.847848 1.5216-5.823251-.94251-6.857942-4.47946-6.516687-8.63565 1.093362-5.32893 24.586195-8.9932 29.582275-9.53726 4.74992-.65589 10.93149-3.34308 18.22599-4.16014 4.11672 0 21.18373-1.47552 21.18373-1.47552z" fill="#fff" fill-rule="evenodd"/><path d="m191.60165 114.87537c-4.77486 12.37773 7.9683 26.42779 24.78381 27.68306 4.22923.3157 12.43728 1.2533 16.9678-.27985" fill="none"/><path d="m226.98258 114.71123c-7.72255-1.7032-16.98984-5.49177-24.74208-4.0603-5.58966.33442-15.19442 1.5472-20.79408 1.46612-2.57059-1.18575-5.08145-.84237-7.65794 1.03244-4.9794.93109-10.07215 2.28436-15.17982 1.93815-5.59452-.49383-11.18905-3.13705-16.71839-1.58518-.84681.36593-1.28502 1.11182-.78186 2.64-.0236 3.16078 1.85738 5.78498 3.29857 8.4089 6.20854 5.81477 11.92315 7.81888 20.1737 7.62094 5.65596.19252 10.59498-3.50914 16.00603-1.86668 2.60318.79017 12.20469 1.60519 17.45452-.61091 2.07618-.87641 11.41106 3.65828 12.33901 4.19507" fill="#fff" fill-rule="evenodd"/><path d="m197.78752 160.52216c.24358 6.03691 3.09254 19.28972-1.82848 23.23759m-50.50265-8.57459c.0915 4.14895.34538 6.56888 1.65051 9.79357m-34.56894-28.1134c.0915 4.14896.34538 5.48961 1.65051 8.7143m23.53925-9.57304c.0915 4.14896.34538 5.48961 1.65051 8.7143m-26.29679-50.53625c-.68224 4.0935-.68224 5.45799 0 8.86923m19.75106-11.1592c-.68224 4.09349-.68224 5.45798 0 8.86922m-21.46854 15.46179c-.68225 4.0935-.68225 5.45799 0 8.86923m24.33101-9.44172c-.68224 4.0935-.68224 5.45799 0 8.86923m42.91182-14.6401c-.19083-1.90831-.38166-3.81662-.57249-5.72494m-5.4126 49.32942c2.04674 3.41124 3.01523 6.49322 3.69748 9.90446m-12.35247-28.96438c.68224 4.77572 2.72898 9.50845 3.41124 12.23745m-5.06199-29.86615c-.68224 4.0935-.68224 5.45798 0 8.86923m82.77024-27.18839c1.93477 5.72915.44708 16.4436-3.83767 19.54253m3.89434 10.07943c-1.27454 6.04253 2.24349 17.41417-3.22859 22.26893m-83.91729-54.5137c2.59813 10.11973-16.58191 1.89679-17.0855-.5725" fill="none"/></g><g stroke-width="2.692947"><path d="m297.5647 69.872121c6.90632-1.675073 14.02815-1.926673 23.78046-5.371279 8.9022 3.432771 24.57052 53.422418-3.02076 92.906468 8.36987.005 20.51023-10.5988 27.66898-16.3388 5.45384.23384 9.10613 7.63994 16.6355-2.66932 10.68548 7.66774 17.33918 3.02387 24.78032-1.33466 4.91098 7.41541 14.48485 3.94785 16.58534.0139 7.02282 3.69671 9.37319-1.12494 11.22012-2.9473.66419-.65536 2.04389.56432 3.46555 1.59876 6.51733 4.74217 25.01494 8.63899 34.57004 4.00397 3.74404 3.45782 3.79141 1.87384 8.6355-1.33466 4.95751 1.2024 18.53232 3.99824 23.69155-1.33466 10.58962-2.94044 15.18451-4.18552 18.69463-20.01989-.6027-18.535914 8.56477-48.061273-12.50935-77.512302-9.78254-7.400677-10.95916-6.555474-23.40125-.795716-12.60523.107057-30.40111-1.117537-36.05122 5.257677-11.10915-1.613874-27.51003.354505-36.08734 3.545995-15.30669-.474763-20.46213-1.034584-28.66092 4.003977-7.91802 0-16.68951 4.687881-23.93125 6.444305-10.15188 2.462248-9.60452 1.401731-21.23065 1.401731-3.31063 0-6.36059.592779-8.49483-.402082-3.78145-1.762695-6.84613-.981991-10.20508-.418936-3.35895.563045-6.73845 6.082359-6.13534 11.302822z" fill="#fff" fill-rule="evenodd"/><path d="m387.22115 137.04708c6.19064-4.77984 6.78546-13.08472 4.69374-22.88799m23.1809 20.0926c5.24003-7.03418 9.01213-14.46446 9.3723-21.27297m28.44061 26.91548c6.44974-1.6693 3.70601-18.2437 1.26292-24.65212m-60.98013-67.799513c6.70254.748195 14.4714 8.517183 12.98499 13.60171m24.03629-17.306691c7.85116 3.105284 5.698 13.284348 6.98255 16.964862m27.93688-21.961546c7.52457-.509613 9.69628 10.407652 9.76142 18.279993m-13.00787 81.378305c3.63618-3.15866 9.97779-11.06089 9.81638-21.93112m-67.70759 20.61035c3.33077-3.93593 4.43706-11.32252 2.60121-20.90822m-84.34306-51.256772c-4.53678-4.942375-10.99233-7.618281-15.78026-6.807384" fill="none"/></g></g><g stroke-width="3.016231" transform="matrix(.9946185 0 0 .99461938 3.507717 5.605423)"><path d="m243.4482 54.442716c22.08533-2.765116 43.965-6.78948 61.30062-4.655326 16.37864 2.016341 33.69978.506297 50.50331-.219389 24.47206 1.732855 28.91485 45.996631 35.21167 71.061229 23.55207 100.08019 26.5367 202.7624 33.1426 305.57051.37093 7.83066.74185 15.66134 1.11278 23.49201.32457 6.85184.81306 17.16438 1.13762 24.01621.45774 9.66327-13.98801 4.40845-22.83369 4.79047-24.48453 24.61033-55.20148 8.92627-81.77388 12.35906-9.23833.39897-17.38354 3.93591-17.81231-5.11577-.66733-14.0881-.32686-30.08289-1.00979-44.50031-1.1437-24.14458-2.2874-48.28915-3.43109-72.43372.7837-60.81782-4.06605-121.44184-7.52822-182.11047-.64772-13.674-3.25328-28.6666-.89786-42.13719 1.57326-8.99743-.95787-20.22177-1.39098-29.36503-.30911-6.52556-.61821-13.05112-.92732-19.576678-.30206-6.376852-2.15325-8.886584-5.03266-13.514368-2.93125-6.400431-13.78122-12.831415-24.37074-18.709717-5.85727-3.251407-9.14563-6.866546-15.40006-8.951521z" style="fill:#fff;fill-rule:evenodd;stroke:#000;stroke-width:3.016231;stroke-linecap:round;stroke-linejoin:round"/><path d="m242.84018 55.533545c16.37636 7.095564 29.24287 14.746116 40.57222 26.489913-3.09644-4.105055-6.4813-11.059157-11.73499-16.757482 4.42207.50512 4.7767 2.611301 9.70507 4.360016-2.4645-3.215988-5.89243-5.859526-10.13677-8.017967 2.95945-.775871 5.83276-.248745 10.01366.310814-13.46546-6.03862-23.78486-1.134111-38.41919-6.385294zm111.83088-5.935642c4.94031 4.964257 6.93127 12.809618 6.44159 17.894186 1.88018-1.887147.43979-5.014357 1.81995-7.981307.88037 4.194814 4.19125 7.844504 4.78406 11.642383.7018-.810234-1.25099-5.250994-.41959-11.770631 5.02346 5.732343 8.08369 12.231734 12.33689 15.674849-4.04919-9.929685-8.91494-19.450791-20.01447-25.852718zm31.76091 53.281467c-1.21754.0839 4.15149-3.855755-4.07589-3.503877 8.88112 1.790097-10.83985 12.149617.83922 12.604467 1.72535-.0493 6.38142-.22832 5.74356-2.0279zm-14.74887 17.70089c-.66735-.53268-4.72372 2.7605-9.57812-.71722 8.725 2.52331 11.29114-7.90834 19.71483-3.51289 2.8988 1.96129-2.53951 8.04898-10.13671 4.23011zm16.46257-4.17465c4.74144 16.87125-1.44316 34.87003-7.2383 46.26429 3.1203-1.61241 6.24163-5.12196 9.31834-8.25701-1.06338 5.51077-2.27345 10.3772-3.47326 15.28872 1.2173-.73242 4.39685-6.05773 8.60262-13.78503 2.98102 8.98539 4.6259 19.06684 7.85088 24.93449zm33.96616 314.08935c-2.46898-3.08837 1.44067-13.49652-.22351-6.44423l2.85583 17.24814c-4.17267-.23315-8.93515-4.88841-2.63232-10.80391zm-13.17902 17.50405c-.42063-1.13914-5.50801 2.75645-8.72168-4.87192 7.22028 7.53588 13.67343-8.75888 19.88519 1.76261 1.96376 4.36405-5.50489 12.35771-11.16351 3.10931zm15.64168-1.66207 1.30377 29.29586-10.26404 1.50953c4.12798-8.45737 7.31388-18.50337 8.96031-30.80539zm-21.13559-238.58751c-2.64059-2.97248 1.79593-13.54009.53066-6.42404l2.70781 17.09259c-4.18178-.0451-9.20194-4.4789-3.23847-10.66855zm-12.18015 18.06922c-.4844-1.11843-5.34741 2.99982-8.98776-4.47202 7.6379 7.19931 13.16679-9.36003 19.96533.86554 2.20775 4.26889-4.80335 12.58586-10.97757 3.60648zm15.53298-2.36289c6.22858 22.93193 4.70737 44.03441 6.67249 65.95989-2.08692-6.17996-4.19899-16.52125-6.30587-26.00236-3.08461 4.57778-6.06342 9.19675-10.44587 13.2693l5.20837-15.30817c-3.20612 2.65616-6.69804 6.10903-10.21512 7.7362 7.6074-11.28837 13.5409-25.59464 15.086-45.65486zm7.03967 90.18684c-2.46897-3.08837 2.56904-13.49652.90485-6.44422l1.72748 17.24813c-4.17268-.23315-8.93515-4.88841-2.63233-10.80391zm-13.17902 17.50405c-.42062-1.13914-5.508 2.75645-8.72168-4.87191 7.22029 7.53587 13.67343-8.75889 19.8852 1.7626 1.96376 4.36405-5.5049 12.35771-11.16352 3.10931zm15.64169-1.66207 4.13681 66.19645c-1.73546-6.26785-4.45253-16.69418-6.02193-26.2609-3.33769 4.43464-6.57204 8.9152-11.17705 12.78675l6.06264-15.05921c-3.35073 2.50943-7.03169 5.80193-10.63492 7.26936 8.23142-10.93539 14.96159-24.96103 17.63445-44.93245zm-125.13874-209.39914c2.31873-2.91473-2.70497-12.10795-.70736-5.82815.46346 5.18922-2.89557 10.55087 1.66282 15.56324 4.15604-.42529 5.62057-4.7202-.95541-9.73509zm17.51845 14.96863c.36586-1.04984 5.63189 2.20442 8.47831-4.84649-6.85214 7.17372-14.07214-7.20188-19.77501 2.61477-1.7535 4.04016 6.08566 10.87079 11.2967 2.23172zm-16.33372-.69485c-4.96308 20.18446-1.20566 40.01968.8417 59.90139 1.43491-5.7468 2.46288-15.2363 3.57495-23.95214 3.54429 3.83091 6.98759 7.70859 11.77073 10.966l-6.77123-13.28047c3.4657 2.09252 7.29848 4.87485 10.96677 6.01385-10.56801-8.53237-20.51091-19.88459-20.38292-39.64863zm2.47687 77.25747c2.07569-3.3349-3.47947-13.25142-.96558-6.42574l-.33071 17.44276c4.11658-.68278 8.27936-5.82217 1.29629-11.01702zm15.22811 15.96322c.27882-1.17708 5.80798 2.14265 8.06935-5.7827-6.25276 8.26669-14.65193-7.22248-19.53843 3.90101-1.41814 4.5475 6.97668 11.6807 11.46908 1.88169zm-15.74099.0402 4.5913 66.07682c.959-6.41401 1.76403-16.93635 2.15544-26.60943 3.85682 4.04441 7.61662 8.14559 12.66366 11.4936l-7.86046-14.30401c3.63481 2.13052 7.69325 5.00324 11.45172 6.07134-9.51158-9.97298-17.90901-23.1781-23.00166-42.72832zm10.83307 215.2829c2.1669-3.28858-4.06978-13.31723-1.74564-6.43718l.1455 17.42388c4.1336-.59187 8.4365-5.63864 1.60014-10.9867zm14.7801 16.2966c.31121-1.17075 5.74613 2.27042 8.22547-5.60381-6.47834 8.12748-14.4457-7.54451-19.63736 3.46945-1.54315 4.5155 6.65076 11.83275 11.41189 2.13436zm-15.73495-.30703-.36681 29.28863 12.20296.61864c-4.91072-8.06702-9.0334-17.79739-11.83619-29.90727zm-4.38576-140.32519c2.1669-3.28858-2.71081-13.31724-.38667-6.43718l-1.21347 17.42388c4.1336-.59187 8.4365-5.63864 1.60014-10.9867zm14.78011 16.29659c.31121-1.17074 5.74612 2.27042 8.22546-5.6038-6.47834 8.12747-14.4457-7.54452-19.63736 3.46944-1.54315 4.5155 6.65076 11.83275 11.4119 2.13436zm-15.73496-.30702 2.92354 66.1801c1.13579-6.39186 2.07103-16.90716 2.72955-26.5701 3.74332 4.12884 7.38808 8.31231 12.34032 11.77111l-7.46165-14.47514c3.5743 2.21037 7.55152 5.17214 11.27878 6.32299-9.23169-10.18122-17.26042-23.56948-21.81054-43.22896zm28.35729-273.013949c-1.22023.03374-2.1026-2.363311-10.3371-2.349943 8.77706 2.153815-2.67868 8.102154 8.96136 9.036794 4.73071.05945 11.63886-5.759 1.37574-6.686851zm18.0025 8.088486c.0864-.71394 6.07595.238948 7.03627-4.632506-4.84486 5.735227-15.61949-1.632685-18.6576 5.492183-.67003 2.815469 8.7597 5.448372 11.62133-.859677zm-31.318 6.718663c-.63901-.559702-4.85957 2.564136-9.52836-1.11043 8.58338 2.880029 11.68334-7.437977 19.8694-2.699645 2.79391 2.07893-2.95066 7.938284-10.34104 3.810075zm16.65559-3.494606c3.86618 17.052995-3.23713 34.783446-9.61136 45.930546 3.19917-1.48287 6.49708-4.86134 9.73114-7.86746-1.34577 5.46274-2.80486 10.27562-4.25603 15.13398 1.2534-.68181 4.70297-5.87224 9.30109-13.42058 2.51427 9.10091 5.55005 19.32082 8.46852 25.31647.36466-6.45962-.36301-16.95884-.86488-26.62302 4.21864 3.7447 8.34577 7.55309 13.68693 10.51648l-9.15688-13.66955c3.82076 1.85463 8.13236 4.41735 11.97843 5.2046-10.40376-9.23385-18.48249-24.467081-29.27696-40.521466zm21.26429 84.000956c-1.10931-.53427 3.34532-5.0901-4.04313-9.05609 6.88907 7.87489-10.24222 12.42932-.23188 19.63977 4.21412 2.39141 13.05402-4.05157 4.27501-10.58368zm15.22644 15.96446c.27894-1.17705 5.80775 2.14314 8.06996-5.782-6.25364 8.26614-14.65118-7.22369-19.53886 3.89936-1.41862 4.54737 6.97546 11.68125 11.4689 1.88264zm-32.11259 2.33643c-.46442-1.12527-5.39952 2.92389-8.90632-4.59934 7.50831 7.3074 13.33016-9.17304 19.94555 1.14864 2.13141 4.30006-5.0259 12.51735-11.03923 3.4507zm16.37159-2.29757c-2.44988 20.07379-8.86015 34.61244-16.23876 45.25728 3.3236-1.24275 6.92058-4.36833 10.41958-7.12734-1.84491 5.34765-3.7427 10.03897-5.63679 14.77624 1.31146-.58745 5.22681-5.50852 10.50395-12.69598 1.66412 9.25971 3.7444 19.67361 6.09787 25.86691.95967-6.41393 1.20429-16.93621 1.59672-26.60924 3.8564 4.04472 7.61577 8.14621 12.66245 11.49463l-7.85897-14.30462c3.63461 2.13082 7.69276 5.00386 11.45112 6.07228-9.51055-9.97376-17.90658-23.17955-22.99717-42.73016zm9.06787 90.05378c-1.10582-.53999 3.37793-5.07299-3.98457-9.07706 6.83797 7.91047-10.32178 12.37687-.35841 19.63894 4.19849 2.41313 13.07943-3.9845 4.34298-10.56188zm15.12277 16.04305c.28652-1.17563 5.79364 2.17306 8.10679-5.74059-6.30657 8.23412-14.60386-7.29919-19.56296 3.79893-1.44784 4.54015 6.89982 11.71734 11.45617 1.94166zm-32.12596 2.17131c-.45715-1.12768-5.41807 2.89617-8.87622-4.64523 7.46083 7.34615 13.38857-9.10464 19.9371 1.25125 2.10359 4.3111-5.10628 12.49172-11.06088 3.39398zm16.38553-2.21341c-2.57909 20.06155-9.0827 34.56749-16.52951 45.17458 3.33143-1.22569 6.94836-4.33281 10.46495-7.07387-1.87927 5.33825-3.80719 10.0199-5.7317 14.7475 1.31517-.5807 5.26203-5.48173 10.5852-12.64219 1.60437 9.26845 3.61745 19.69325 5.93088 25.89876 1.00094-6.40911 1.31336-16.93032 1.7681-26.60152 3.83013 4.06463 7.56287 8.18553 12.58772 11.55998l-7.76638-14.34532c3.62066 2.14956 7.66009 5.04353 11.41137 6.13131-9.44577-10.02286-17.75628-23.27207-22.72063-42.84923zm7.8833 96.00059c-1.10111-.54758 3.42117-5.04995-3.90643-9.1045 6.76961 7.95741-10.42712 12.30642-.52681 19.63682 4.17748 2.44192 13.11262-3.89502 4.43324-10.53232zm14.98402 16.14687c.29657-1.1737 5.77456 2.21274 8.1554-5.68521-6.3767 8.1911-14.54014-7.39928-19.59404 3.66507-1.48667 4.53033 6.7988 11.7648 11.43864 2.02014zm-32.14212 1.95139c-.44746-1.13082-5.44251 2.85914-8.83571-4.70608 7.39726 7.39736 13.46563-9.01313 19.92485 1.38778 2.06646 4.32557-5.21304 12.45698-11.08914 3.3183zm16.40326-2.10126c-2.75096 20.04424-9.37849 34.50591-16.9157 45.06219 3.34169-1.2029 6.985-4.28531 10.52483-7.00235-1.92492 5.32549-3.89283 9.99401-5.85775 14.70852 1.32005-.5717 5.30865-5.4458 10.69283-12.56993 1.52475 9.27958 3.44826 19.71835 5.70829 25.9398 1.05585-6.40237 1.45847-16.92162 1.99611-26.58987 3.79499 4.09092 7.4921 8.23745 12.48761 11.64635l-7.64274-14.39873c3.60196 2.17438 7.61625 5.09605 11.35791 6.20953-9.35909-10.08769-17.55533-23.39403-22.35139-43.00551z" fill-rule="evenodd" stroke="none"/><path d="m343.74875 487.31864c17.04292-1.19232 34.64492.21492 51.05683-4.99111 4.29574-1.36265 7.5424-4.88203 12.34214-5.50579 6.2208-.80844 12.47202-1.48758 18.73054-1.18894.11431 3.50587 2.75762 7.84423.52444 10.53163-2.60374 3.13333-8.42752 1.17031-12.52292 2.18116-4.77507 1.17861-9.53119 2.36359-14.00456 4.73185-6.38558 3.38061-14.06512 3.3104-21.20635 3.98264-13.65791 1.28568-27.38996 1.50828-41.07592 2.51399-10.23993.75248-20.54037 1.14783-30.80225.97294-3.11673-.0531-2.93576-2.91884-2.66365-5.09999.22679-1.8179-.74332-10.88055-.74332-10.88055s11.66064 2.88614 16.88294 2.63368c7.82266-.37816 15.67362.66477 23.48208.11849z" fill="#fff" stroke="#000" stroke-linecap="round" stroke-linejoin="round" stroke-width="3.016231"/></g></g></g><path d="m300.00001 658.5s298.5-112.32031 298.5-397.77183v-259.22817h-597.00001v259.22817c0 285.45152 298.50001 397.77183 298.50001 397.77183z" fill="url(#a)" fill-rule="evenodd"/><path d="m299.99999 658.39715s-298.4999898-112.41841-298.4999898-398.11925v-258.7775027h596.9999898v258.7775027c0 285.70084-298.5 398.11925-298.5 398.11925z" fill="none" stroke="#000" stroke-width="3"/></svg>